# AST/ASF file generated using VICON BodyLanguage
# -----------------------------------------------
:version 1.10
:name VICON
:units
  mass 1.0
  length 0.45
  angle deg
:documentation
   .ast/.asf automatically generated from VICON data using
   VICON BodyBuilder and BodyLanguage model FoxedUp or BRILLIANT.MOD
:root
   order TX TY TZ RX RY RZ
   axis XYZ
   position 0 0 0  
   orientation 0 0 0 
:bonedata
  begin
     id 1 
     name lhipjoint
     direction 0.602128 -0.715006 0.355257 
     length 2.21237 
     axis 0 0 0  XYZ
  end
  begin
     id 2 
     name lfemur
     direction 0.34202 -0.939693 0  
     length 6.71649  
     axis 0 0 20  XYZ
    dof rx ry rz
    limits (-160.0 20.0)
           (-70.0 70.0)
           (-60.0 70.0)
  end
  begin
     id 3 
     name ltibia
     direction 0.34202 -0.939693 0   
     length 6.97123   
     axis 0 0 20   XYZ
    dof rx
    limits (-10.0 170.0)
  end
  begin
     id 4 
     name lfoot
     direction 0.0655697 -0.180151 0.981451   
     length 1.80924   
     axis -90 7.62852e-016 20   XYZ
    dof rx rz
    limits (-45.0 90.0)
           (-70.0 20.0)
  end
  begin
     id 5 
     name ltoes
     direction 1.53545e-011 -4.21827e-011 1   
     length 0.916331   
     axis -90 7.62852e-016 20   XYZ
    dof rx
    limits (-90.0 20.0)
  end
  begin
     id 6 
     name rhipjoint
     direction -0.625414 -0.698792 0.347201   
     length 2.2637  
     axis 0 0 0  XYZ 
  end
  begin
     id 7 
     name rfemur
     direction -0.34202 -0.939693 0   
     length 7.07595   
     axis 0 0 -20   XYZ
    dof rx ry rz
    limits (-160.0 20.0)
           (-70.0 70.0)
           (-70.0 60.0)
  end
  begin
     id 8 
     name rtibia
     direction -0.34202 -0.939693 0   
     length 7.22924   
     axis 0 0 -20   XYZ
    dof rx
    limits (-10.0 170.0)
 end
 begin
     id 9 
     name rfoot
     direction -0.0766747 -0.210662 0.974547   
     length 1.98482  
     axis -90 -7.62852e-016 -20   XYZ
    dof rx rz
    limits (-45.0 90.0)
           (-20.0 70.0)
  end
  begin
     id 10 
     name rtoes
     direction -1.53532e-011 -4.21867e-011 1   
     length 0.999842   
     axis -90 -7.62852e-016 -20   XYZ
    dof rx
    limits (-90.0 20.0)
  end
  begin
     id 11 
     name lowerback
     direction -0.0224668 0.997354 -0.0691422   
     length 2.09945   
     axis 0 0 0   XYZ
    dof rx ry rz
    limits (-20.0 45.0)
           (-30.0 30.0)
           (-30.0 30.0)
  end
  begin
     id 12 
     name upperback
     direction 0.0134698 0.998451 -0.0539888   
     length 2.09758   
     axis 0 0 0   XYZ
    dof rx ry rz
    limits (-20.0 45.0)
           (-30.0 30.0)
           (-30.0 30.0)
  end
  begin
     id 13 
     name thorax
     direction 0.0241905 0.99948 -0.0213333   
     length 2.10428   
     axis 0 0 0   XYZ
    dof rx ry rz
    limits (-20.0 45.0)
           (-30.0 30.0)
           (-30.0 30.0)
  end
  begin
     id 14 
     name lowerneck
     direction -0.00866847 0.995978 0.0891737   
     length 1.3959   
     axis 0 0 0   XYZ
    dof rx ry rz
    limits (-20.0 45.0)
           (-30.0 30.0)
           (-30.0 30.0)
  end
  begin
     id 15 
     name upperneck
     direction 0.0680679 0.992203 0.104404   
     length 1.39452   
     axis 0 0 0   XYZ
    dof rx ry rz
    limits (-20.0 45.0)
           (-30.0 30.0)
           (-30.0 30.0)
  end
  begin
     id 16
     name head
     direction 0.0242216 0.999358 0.0264054  
     length 1.40433  
     axis 0 0 0   XYZ
    dof rx ry rz
    limits (-20.0 45.0)
           (-30.0 30.0)
           (-30.0 30.0)
  end
  begin
     id 17 
     name lclavicle
     direction 0.929368 0.362991 -0.0671771  
     length 3.04887  
     axis 0 0 0   XYZ
    dof ry rz
    limits (-20.0 10.0)
           (0.0 20.0)
  end
  begin
     id 18 
     name lhumerus
     direction 1 -4.48967e-011 -7.13741e-028   
     length 4.77195   
     axis -180 -30 -90   XYZ
    dof rx ry rz
    limits (-60.0 90.0)
           (-90.0 90.0)
           (-90.0 90.0)
  end
  begin
     id 19
     name lradius
     direction 1 -4.48977e-011 3.60404e-027   
     length 2.98444   
     axis -180 -30 -90   XYZ
    dof rx
    limits (-10.0 170.0)
  end
  begin
     id 20
     name lwrist
     direction 1 -4.48997e-011 7.54877e-027   
     length 1.49222   
     axis -7.18178e-015 90 90   XYZ
    dof ry
    limits (-180.0 0.0)
 end
  begin
     id 21 
     name lhand
     direction 1 -4.489e-011 1.51105e-026   
     length 0.992285   
     axis -9.63605e-015 90 90   XYZ
    dof rx rz
    limits (-90.0 90.0)
           (-45.0 45.0)
  end
  begin
     id 22 
     name lfingers
     direction 1 -4.48998e-011 3.01948e-026   
     length 0.800006   
     axis -1.92718e-014 90 90   XYZ
    dof rx
    limits (0.0 90.0)
  end
  begin
     id 23
     name lthumb
     direction 0.707107 -6.34881e-011 0.707107   
     length 1.14865   
     axis -90 45 -3.53137e-014   XYZ
    dof rx rz
    limits (-45.0 45.0)
           (-45.0 45.0)
  end
  begin
     id 24 
     name rclavicle
     direction -0.945672 0.324529 0.0196374   
     length 3.4236  
     axis 0 0 0   XYZ 
    dof ry rz
    limits (-10.0 20.0)
           (-20.0 0.0)
  end
  begin
     id 25 
     name rhumerus
     direction -1 -4.4896e-011 1.02757e-029  
     length 4.62052   
     axis -180 30 90   XYZ
    dof rx ry rz
    limits (-90.0 60.0)
           (-90.0 90.0)
           (-90.0 90.0)
  end
  begin
     id 26 
     name rradius
     direction -1 -4.48982e-011 3.85962e-027   
     length 2.95332   
     axis -180 30 90   XYZ
    dof rx
    limits (-10.0 170.0)
  end
  begin
     id 27 
     name rwrist
     direction -1 -4.48961e-011 7.55118e-027   
     length 1.47666   
     axis -7.18178e-015 -90 -90   XYZ
    dof ry
    limits (-180.0 0.0)
  end
  begin
     id 28
     name rhand
     direction -1 -4.48984e-011 1.50994e-026   
     length 0.990956   
     axis -9.63605e-015 -90 -90   XYZ
    dof rx rz
    limits (-90.0 90.0)
           (-45.0 45.0)
  end
  begin
     id 29
     name rfingers
     direction -1 -4.4892e-011 3.02158e-026   
     length 0.798934   
     axis -1.92718e-014 -90 -90   XYZ
    dof rx
    limits (0.0 90.0)
  end
  begin
     id 30
     name rthumb
     direction -0.707107 -6.34916e-011 0.707107   
     length 1.14711   
     axis -90 -45 3.53137e-014   XYZ
    dof rx rz
    limits (-45.0 45.0)
           (-45.0 45.0)
  end
:hierarchy
  begin
    root lhipjoint rhipjoint lowerback
    lhipjoint lfemur
    lfemur ltibia
    ltibia lfoot
    lfoot ltoes
    rhipjoint rfemur
    rfemur rtibia
    rtibia rfoot
    rfoot rtoes
    lowerback upperback
    upperback thorax
    thorax lowerneck lclavicle rclavicle
    lowerneck upperneck
    upperneck head
    lclavicle lhumerus
    lhumerus lradius
    lradius lwrist
    lwrist lhand lthumb
    lhand lfingers
    rclavicle rhumerus
    rhumerus rradius
    rradius rwrist
    rwrist rhand rthumb
    rhand rfingers
  end

#!OML:ASF H:\ManfredObstacles\Project 1\Capture day 1\Session 1\Male.ASF
:FULLY-SPECIFIED
:DEGREES
332
root 0.684176 16.2223 -13.8873 -169.691 -11.72 -188.002
lowerback -12.9876 -5.13276 -11.7921
upperback 1.36811 -5.00996 -0.707102
thorax 9.79721 -3.05028 4.73723
lowerneck -1.69721 -2.27567 -6.3889
upperneck -7.66836 -2.90932 10.5673
head -1.71416 -1.71513 4.26014
rclavicle -1.22982e-014 3.52222e-014
rhumerus -46.2076 -34.2148 -61.8799
rradius 21.0758
rwrist 41.7083
rhand -0.898855 -8.08582
rfingers 7.12502
rthumb 24.7292 -36.5075
lclavicle -1.22982e-014 3.52222e-014
lhumerus -22.7439 18.4041 84.4761
lradius 14.959
lwrist -39.0162
lhand -7.57331 8.69136
lfingers 7.12502
lthumb 18.3194 37.8487
rfemur -37.503 -4.19107 7.80038
rtibia 31.2124
rfoot -7.99665 5.50982
rtoes 17.8516
lfemur 8.87941 -4.38078 -26.7209
ltibia -3.18055e-014
lfoot -5.79034 -14.9947
ltoes -1.46432
333
root 0.718993 16.2382 -14.0606 -169.053 -11.2684 -187.059
lowerback -13.8802 -5.12227 -10.9394
upperback 1.26659 -5.0331 -0.331604
thorax 10.1556 -3.02781 4.61666
lowerneck -1.89722 -2.20313 -6.11754
upperneck -7.98656 -2.86655 9.92672
head -2.0078 -1.6861 4.45088
rclavicle -1.30049e-014 -2.52705e-014
rhumerus -45.1201 -33.8426 -62.4358
rradius 21.04
rwrist 41.8685
rhand -0.799418 -7.89534
rfingers 7.12502
rthumb 24.8245 -36.3039
lclavicle -1.30049e-014 -2.52705e-014
lhumerus -23.0005 21.7499 83.4897
lradius 14.2305
lwrist -41.5537
lhand -7.9978 8.8106
lfingers 7.12502
lthumb 17.911 38.0058
rfemur -38.364 -4.157 9.25648
rtibia 31.8977
rfoot -8.31759 6.32476
rtoes 16.4921
lfemur 8.63279 -3.8768 -25.5247
ltibia 6.36111e-015
lfoot -5.81564 -14.7145
ltoes -1.72431
334
root 0.752094 16.2601 -14.2228 -168.951 -10.872 -186.281
lowerback -13.915 -4.84596 -10.0846
upperback 1.21085 -4.8127 -0.121457
thorax 10.013 -2.87106 4.43255
lowerneck -1.90871 -2.12489 -6.04371
upperneck -8.38795 -2.76938 9.87812
head -2.15048 -1.65541 4.43019
rclavicle -2.79292e-014 2.5842e-015
rhumerus -44.3129 -33.4345 -62.9689
rradius 21.2819
rwrist 41.658
rhand -0.656329 -7.898
rfingers 7.12502
rthumb 24.9616 -36.2876
lclavicle -2.79292e-014 2.5842e-015
lhumerus -23.4713 24.0486 82.705
lradius 13.6573
lwrist -43.6567
lhand -8.19022 9.0709
lfingers 7.12502
lthumb 17.7258 38.283
rfemur -38.5378 -4.39766 10.607
rtibia 32.4227
rfoot -8.63406 7.41977
rtoes 15.1127
lfemur 8.93295 -3.38362 -24.5453
ltibia -2.54444e-014
lfoot -5.65542 -14.3231
ltoes -2.78618
335
root 0.788893 16.2832 -14.3757 -169.002 -10.7639 -185.848
lowerback -13.6487 -4.69099 -9.70876
upperback 1.25873 -4.7014 0.0560363
thorax 9.87683 -2.79676 4.46202
lowerneck -1.88654 -2.14909 -6.00797
upperneck -9.15812 -2.76864 10.1832
head -2.14842 -1.71066 4.10352
rclavicle 4.95347e-014 3.57812e-015
rhumerus -43.2735 -33.1194 -63.5273
rradius 21.58
rwrist 41.492
rhand -0.504881 -7.87821
rfingers 7.12502
rthumb 25.1067 -36.2476
lclavicle 4.95347e-014 3.57812e-015
lhumerus -23.9164 26.1154 82.0227
lradius 13.1331
lwrist -45.6045
lhand -8.27828 9.08293
lfingers 7.12502
lthumb 17.6411 38.3026
rfemur -38.3186 -4.90758 11.5873
rtibia 32.8305
rfoot -9.00842 8.50074
rtoes 14.0862
lfemur 9.40995 -3.21576 -23.8929
ltibia -3.18055e-014
lfoot -5.4295 -13.8899
ltoes -4.86745
336
root 0.828081 16.3021 -14.5214 -168.831 -10.8291 -185.728
lowerback -13.4901 -4.70467 -9.75137
upperback 1.20739 -4.74077 0.183775
thorax 9.75066 -2.81519 4.62814
lowerneck -1.30039 -2.09029 -5.79075
upperneck -10.0215 -2.70716 9.99611
head -2.51273 -1.72371 4.03516
rclavicle 2.15806e-014 -4.67144e-015
rhumerus -42.1902 -32.3359 -64.3715
rradius 22.1001
rwrist 40.9056
rhand -0.36876 -7.71937
rfingers 7.12502
rthumb 25.2371 -36.0704
lclavicle 2.15806e-014 -4.67144e-015
lhumerus -24.3631 27.1036 81.6058
lradius 12.744
lwrist -46.562
lhand -8.26415 8.87506
lfingers 7.12502
lthumb 17.6547 38.0935
rfemur -38.21 -5.59273 12.2365
rtibia 33.1575
rfoot -9.60866 9.29971
rtoes 13.4094
lfemur 9.67264 -3.28563 -23.5172
ltibia 2.8625e-014
lfoot -4.76167 -13.3448
ltoes -4.18928
337
root 0.866118 16.319 -14.6592 -168.554 -10.9193 -185.715
lowerback -13.3656 -4.73482 -9.88125
upperback 1.08636 -4.78765 0.264391
thorax 9.57141 -2.83741 4.79016
lowerneck -1.23912 -2.02784 -6.22699
upperneck -10.1122 -2.59627 10.6999
head -2.53734 -1.6891 4.32652
rclavicle 3.20416e-014 -1.76918e-014
rhumerus -41.1083 -30.7102 -65.7349
rradius 23.0718
rwrist 39.3243
rhand -0.238905 -7.83917
rfingers 7.12502
rthumb 25.3615 -36.1726
lclavicle 3.20416e-014 -1.76918e-014
lhumerus -24.6426 27.3721 81.4468
lradius 12.4063
lwrist -47.1771
lhand -8.03446 8.63642
lfingers 7.12502
lthumb 17.8757 37.8349
rfemur -38.2261 -6.31673 12.7598
rtibia 33.471
rfoot -10.2465 10.0259
rtoes 13.4105
lfemur 9.80715 -3.40316 -23.2377
ltibia 3.18055e-015
lfoot -4.21292 -12.7863
ltoes -4.45756
338
root 0.901881 16.342 -14.7914 -168.2 -11.0412 -185.604
lowerback -13.2925 -4.73997 -9.83786
upperback 0.925021 -4.82515 0.326468
thorax 9.35748 -2.84316 4.83625
lowerneck -1.12256 -2.02007 -5.95898
upperneck -10.3028 -2.59085 10.7057
head -2.61728 -1.70947 4.28927
rclavicle -1.51325e-014 -1.2424e-014
rhumerus -40.1705 -28.8826 -67.2215
rradius 24.3782
rwrist 37.2825
rhand -0.383898 -8.01078
rfingers 7.12502
rthumb 25.2226 -36.3639
lclavicle -1.51325e-014 -1.2424e-014
lhumerus -24.7447 27.0864 81.5005
lradius 12.1443
lwrist -47.5769
lhand -7.60249 8.43089
lfingers 7.12502
lthumb 18.2913 37.5909
rfemur -38.3703 -7.09994 13.3951
rtibia 33.7994
rfoot -10.8094 10.8874
rtoes 12.8726
lfemur 9.80693 -3.53433 -22.8409
ltibia -2.22639e-014
lfoot -4.311 -12.4996
ltoes -9.69394
339
root 0.93605 16.3664 -14.9153 -167.608 -11.1684 -185.513
lowerback -13.4332 -4.77893 -9.79363
upperback 0.70019 -4.89064 0.391917
thorax 9.20071 -2.86338 4.86763
lowerneck -1.11385 -1.99882 -5.97817
upperneck -10.4373 -2.55649 10.9659
head -2.65564 -1.71269 4.37563
rclavicle 1.05232e-014 6.16232e-015
rhumerus -39.3149 -27.1973 -68.5726
rradius 25.7274
rwrist 35.1888
rhand -0.830606 -7.99948
rfingers 7.12502
rthumb 24.7946 -36.4121
lclavicle 1.05232e-014 6.16232e-015
lhumerus -24.6308 25.8822 81.9931
lradius 12.1053
lwrist -47.2236
lhand -6.85384 8.44606
lfingers 7.12502
lthumb 19.0114 37.5369
rfemur -38.7865 -7.86375 14.001
rtibia 34.0908
rfoot -11.2909 11.7553
rtoes 11.7576
lfemur 9.50284 -3.6784 -22.4391
ltibia -1.90833e-014
lfoot -4.22814 -12.3554
ltoes -12.702
340
root 0.966962 16.3779 -15.0286 -166.774 -11.1837 -185.618
lowerback -13.7875 -4.8678 -9.98681
upperback 0.443261 -4.96715 0.464697
thorax 9.15501 -2.90489 5.0239
lowerneck -0.94136 -1.95041 -5.94334
upperneck -10.7872 -2.49133 11.0787
head -2.79178 -1.70781 4.41446
rclavicle 3.26752e-015 2.38542e-015
rhumerus -38.3735 -25.4281 -69.8171
rradius 26.9682
rwrist 33.0705
rhand -1.32616 -8.05179
rfingers 7.12502
rthumb 24.3195 -36.529
lclavicle 3.26752e-015 2.38542e-015
lhumerus -24.3795 24.3097 82.7855
lradius 12.3089
lwrist -46.5287
lhand -6.07929 8.53445
lfingers 7.12502
lthumb 19.7561 37.5505
rfemur -39.4748 -8.42782 14.3237
rtibia 34.3466
rfoot -11.7292 12.5126
rtoes 11.3258
lfemur 8.97058 -3.75801 -22.2709
ltibia 0
lfoot -2.75691 -11.8862
ltoes -3.70284
341
root 0.993179 16.3813 -15.1311 -166.081 -11.0662 -185.679
lowerback -14.0685 -4.86605 -10.0866
upperback 0.280595 -4.93591 0.499062
thorax 9.14074 -2.89251 5.11371
lowerneck -1.05157 -1.99195 -5.81571
upperneck -10.9087 -2.55279 11.0957
head -2.80564 -1.75194 4.40017
rclavicle -8.70304e-014 -6.75868e-015
rhumerus -37.4877 -24.0057 -70.862
rradius 28.1887
rwrist 31.2129
rhand -1.73845 -8.05207
rfingers 7.12502
rthumb 23.9242 -36.5817
lclavicle -8.70304e-014 -6.75868e-015
lhumerus -24.0045 22.2177 83.7806
lradius 12.696
lwrist -45.3626
lhand -5.80019 8.46563
lfingers 7.12502
lthumb 20.0244 37.4538
rfemur -40.0789 -8.84889 14.6624
rtibia 34.5949
rfoot -12.1431 13.2138
rtoes 11.3431
lfemur 8.58366 -3.69218 -22.1188
ltibia -2.22639e-014
lfoot -2.18429 -11.7846
ltoes -1.16255
342
root 1.01646 16.3879 -15.2228 -165.506 -10.8802 -185.716
lowerback -14.2106 -4.76807 -10.0782
upperback 0.145219 -4.80372 0.471757
thorax 9.04381 -2.82287 5.10894
lowerneck -1.01231 -2.02186 -5.84843
upperneck -11.2181 -2.5884 11.3638
head -2.89449 -1.80047 4.49716
rclavicle 2.11209e-015 -2.5842e-015
rhumerus -36.7955 -23.0335 -71.6897
rradius 29.4482
rwrist 29.5577
rhand -1.99108 -8.0712
rfingers 7.12502
rthumb 23.6819 -36.6324
lclavicle 2.11209e-015 -2.5842e-015
lhumerus -23.6203 19.6785 84.8795
lradius 13.1943
lwrist -43.7045
lhand -5.91331 8.31352
lfingers 7.12502
lthumb 19.9157 37.313
rfemur -40.6252 -9.28182 15.0563
rtibia 34.8464
rfoot -12.4065 13.8648
rtoes 10.2362
lfemur 8.2657 -3.5468 -21.9878
ltibia 6.36111e-015
lfoot -2.16116 -11.8321
ltoes -3.18052
